<?xml version="1.0" encoding="utf-8"?>
<!-- Generator: Adobe Illustrator 27.5.0, SVG Export Plug-In . SVG Version: 6.00 Build 0)  -->
<svg version="1.1" xmlns="http://www.w3.org/2000/svg" xmlns:xlink="http://www.w3.org/1999/xlink" x="0px" y="0px"
	 viewBox="0 0 750 500" style="enable-background:new 0 0 750 500;" xml:space="preserve">
<g id="BACKGROUND">
	<rect x="0.218" style="fill:#EDD8CD;" width="750" height="500"/>
</g>
<g id="OBJECTS">
	<g>
		<g>
			<g>
				<g>
					
						<line style="fill:none;stroke:#FFFFFF;stroke-width:1.4977;stroke-miterlimit:10;" x1="146.431" y1="126.495" x2="591.101" y2="126.495"/>
					<path style="fill:none;stroke:#FFFFFF;stroke-width:1.4977;stroke-miterlimit:10;" d="M585.294,372.468H152.238
						c-3.207,0-5.807-2.6-5.807-5.807V103.153c0-3.207,2.6-5.807,5.807-5.807h433.056c3.207,0,5.807,2.6,5.807,5.807v263.508
						C591.101,369.868,588.501,372.468,585.294,372.468z"/>
					<g>
						<path style="fill:none;stroke:#FFFFFF;stroke-width:1.4977;stroke-miterlimit:10;" d="M175.736,112.218
							c0,2.246-1.821,4.067-4.067,4.067c-2.246,0-4.067-1.821-4.067-4.067c0-2.246,1.821-4.067,4.067-4.067
							C173.915,108.15,175.736,109.971,175.736,112.218z"/>
						<circle style="fill:none;stroke:#FFFFFF;stroke-width:1.4977;stroke-miterlimit:10;" cx="187.477" cy="112.218" r="4.067"/>
						<circle style="fill:none;stroke:#FFFFFF;stroke-width:1.4977;stroke-miterlimit:10;" cx="203.285" cy="112.218" r="4.067"/>
					</g>
				</g>
			</g>
			<g>
				<path style="fill:#FFFFFF;" d="M209.128,217.469H103.722c-2.979,0-5.394-2.415-5.394-5.394v-61.407
					c0-2.979,2.415-5.394,5.394-5.394h105.406c2.979,0,5.394,2.415,5.394,5.394v61.407
					C214.522,215.053,212.107,217.469,209.128,217.469z"/>
				<g>
					<path style="fill:#705ACC;" d="M98.327,215.013l28.036-22.989l23.774,17.626l33.091-33.044l31.294,26.171v21.665
						c0,3.994-3.238,7.231-7.231,7.231H105.559c-3.994,0-7.231-3.238-7.231-7.231V215.013z"/>
					
						<ellipse transform="matrix(0.1598 -0.9871 0.9871 0.1598 -48.1277 292.7202)" style="fill:#88CEC5;" cx="147.895" cy="174.633" rx="7.567" ry="7.567"/>
				</g>
			</g>
			<g>
				<g>
					<path style="fill:#705ACC;" d="M545.974,145.855h-71.303c-3.022,0-5.472-2.45-5.472-5.472V74.43
						c0-3.022,2.45-5.472,5.472-5.472h71.303c3.022,0,5.472,2.45,5.472,5.472v65.954
						C551.446,143.406,548.996,145.855,545.974,145.855z"/>
				</g>
				<g transform="translate(0,-952.36218)">
					
						<path style="fill:none;stroke:#FFFFFF;stroke-width:2.6235;stroke-linecap:round;stroke-linejoin:round;stroke-miterlimit:10;" d="
						M509.948,1042.743c-3.158,0-6.32,1.2-8.729,3.609c-2.045,2.045-3.222,4.63-3.532,7.295c-5.028,0.457-8.961,4.678-8.961,9.824
						c0,5.451,4.419,9.87,9.871,9.87h24.182c4.648,0,8.39-3.742,8.39-8.39c0-4.648-3.742-8.39-8.39-8.39h-0.586
						c0.435-3.63-0.746-7.424-3.532-10.21C516.252,1043.942,513.105,1042.743,509.948,1042.743z"/>
				</g>
			</g>
			<g>
				<g>
					
						<ellipse transform="matrix(0.2271 -0.9739 0.9739 0.2271 142.7773 358.817)" style="fill:#88CEC5;" cx="297.456" cy="89.454" rx="26.878" ry="26.878"/>
				</g>
				<g transform="translate(0,-952.36218)">
					<path style="fill:#FFFFFF;" d="M297.452,1030.422c0.403-0.001,0.686,0.074,1.021,0.38l8.356,7.596
						c0.594,0.533,0.704,1.574,0.119,2.16c-0.564,0.565-1.57,0.633-2.16,0.095l-5.816-5.294v16.332c0,0.839-0.68,1.519-1.519,1.519
						c-0.839,0-1.519-0.68-1.519-1.519v-16.332l-5.816,5.294c-0.59,0.538-1.624,0.497-2.16-0.095
						c-0.536-0.592-0.506-1.617,0.119-2.16l8.356-7.596C296.648,1030.603,297.045,1030.429,297.452,1030.422L297.452,1030.422z"/>
				</g>
			</g>
			<g>
				<g>
					<g>
						<g>
							<g>
								<g>
									<path style="fill:#EBD6CB;" d="M648.956,256.959H521.97c-3.447,0-6.241-2.794-6.241-6.241v-51.704
										c0-3.447,2.794-6.241,6.241-6.241h126.986c3.447,0,6.241,2.794,6.241,6.241v51.704
										C655.197,254.165,652.403,256.959,648.956,256.959z"/>
									<path style="fill:none;stroke:#FFFFFF;stroke-width:1.4977;stroke-miterlimit:10;" d="M648.956,256.959H521.97
										c-3.447,0-6.241-2.794-6.241-6.241v-51.704c0-3.447,2.794-6.241,6.241-6.241h126.986c3.447,0,6.241,2.794,6.241,6.241
										v51.704C655.197,254.165,652.403,256.959,648.956,256.959z"/>
								</g>
							</g>
						</g>
					</g>
				</g>
				<g>
					<path style="fill:#705ACC;" d="M608.362,237.203h-73.107c-3.472,0-6.286-2.814-6.286-6.286l0,0
						c0-3.472,2.814-6.286,6.286-6.286h73.107V237.203z"/>
					<path style="fill:none;stroke:#FFFFFF;stroke-width:1.4977;stroke-miterlimit:10;" d="M636.167,237.203H535.255
						c-3.472,0-6.286-2.814-6.286-6.286l0,0c0-3.472,2.814-6.286,6.286-6.286h100.911c3.472,0,6.286,2.814,6.286,6.286l0,0
						C642.453,234.389,639.639,237.203,636.167,237.203z"/>
					
						<text transform="matrix(1 0 0 1 532.1563 219.4468)" style="fill:#FFFFFF; font-family:'Bebas'; font-size:11.89px; letter-spacing:2;">loading...</text>
				</g>
			</g>
		</g>
		<g>
			<path style="fill:#917ECA;" d="M202.48,58.065h-80.832c-1.772,0-3.208-1.436-3.208-3.208l0,0c0-1.772,1.436-3.208,3.208-3.208
				h80.832c1.772,0,3.208,1.436,3.208,3.208l0,0C205.688,56.629,204.251,58.065,202.48,58.065z"/>
			<path style="fill:#88CEC5;" d="M677.585,327.337h-59.318c-1.772,0-3.208-1.436-3.208-3.208l0,0c0-1.772,1.436-3.208,3.208-3.208
				h59.318c1.772,0,3.208,1.436,3.208,3.208l0,0C680.793,325.901,679.357,327.337,677.585,327.337z"/>
			<path style="fill:#88CEC5;" d="M107.67,279.311H61.306c-1.772,0-3.208-1.436-3.208-3.208v0c0-1.772,1.436-3.208,3.208-3.208
				h46.364c1.772,0,3.208,1.436,3.208,3.208v0C110.878,277.875,109.442,279.311,107.67,279.311z"/>
			<path style="fill:#88CEC5;" d="M389.101,60.642h-6.121c-1.608,0-2.912-1.304-2.912-2.912v-5.746c0-1.608,1.304-2.912,2.912-2.912
				h6.121c1.608,0,2.912,1.304,2.912,2.912v5.746C392.013,59.338,390.71,60.642,389.101,60.642z"/>
			<path style="fill:#705ACC;" d="M107.334,341.018h-6.121c-1.608,0-2.912-1.304-2.912-2.912v-5.746
				c0-1.608,1.304-2.912,2.912-2.912h6.121c1.608,0,2.912,1.304,2.912,2.912v5.746C110.246,339.715,108.942,341.018,107.334,341.018
				z"/>
			<path style="fill:#705ACC;" d="M669.174,162.151h-5.76c-1.514,0-2.741-1.227-2.741-2.741v-5.407c0-1.514,1.227-2.741,2.741-2.741
				h5.76c1.514,0,2.741,1.227,2.741,2.741v5.407C671.914,160.924,670.687,162.151,669.174,162.151z"/>
			<g>
				<path style="fill:none;stroke:#D7B9AD;stroke-width:1.973;stroke-miterlimit:10;" d="M72.206,178.856
					c0,3.886-3.107,7.036-6.939,7.036c-3.832,0-6.939-3.15-6.939-7.036c0-3.886,3.107-7.036,6.939-7.036
					C69.1,171.82,72.206,174.97,72.206,178.856z"/>
				
					<ellipse style="fill:none;stroke:#D7B9AD;stroke-width:1.973;stroke-miterlimit:10;" cx="636.453" cy="85.508" rx="9.186" ry="9.315"/>
				<path style="fill:none;stroke:#D7B9AD;stroke-width:1.973;stroke-miterlimit:10;" d="M652.412,377.494
					c0,3.341-2.671,6.05-5.966,6.05c-3.295,0-5.966-2.709-5.966-6.05s2.671-6.05,5.966-6.05
					C649.741,371.444,652.412,374.152,652.412,377.494z"/>
			</g>
		</g>
	</g>
	<g>
		<g>
			<g>
				<g>
					<g>
						<path style="fill:#88CEC5;" d="M368.171,221.31c0,0-8.672,1.291-18.933,14.514c-7.123,9.179-22.384,31.404-31.119,45.019
							c-3.999,6.234-2.823,14.453,2.755,19.326l0,0c6.219,5.432,17.246,4.796,22.68-1.421l33.796-40.024L368.171,221.31z"/>
						<g>
							<g>
								<path style="fill:#88CEC5;" d="M320.809,254.941l20.41,19.722c6.962,6.5,7.13,17.483,0.37,24.193h0
									c-7.99,7.931-21.368,5.907-26.655-4.032l-10.959-21.048L320.809,254.941z"/>
								<g>
									<path style="fill:#DFA68F;" d="M287.408,209.125l43.019,56.228c4.704,6.063,3.586,14.794-2.494,19.477h0
										c-6.796,5.234-16.666,3.102-20.695-4.471l-32.088-64.713L287.408,209.125z"/>
								</g>
							</g>
							<g>
								<path style="fill:#DFA68F;" d="M285.452,211.643c0,0,8.506-2.658,5.493-13.468l-3.916-13.97
									c-0.414-1.477-2.027-2.258-3.442-1.668l0,0c-0.961,0.4-1.583,1.344-1.572,2.385l0.069,8.296l-13.629-20.786
									c-0.934-1.425-2.923-1.675-4.181-0.526l0,0c-0.975,0.89-1.185,2.344-0.504,3.474l7.998,13.255l-0.947,1.216l-11.063-11.021
									c-1.191-1.186-3.168-0.989-4.101,0.41l0,0c-0.705,1.057-0.566,2.464,0.33,3.363l10.856,10.885l-0.886,1.42l-10.423-7.921
									c-0.982-0.747-2.388-0.529-3.099,0.48l0,0c-0.663,0.942-0.479,2.237,0.421,2.956l10.796,8.624l-0.691,1.206l-9.607-5.137
									c-1.08-0.578-2.418-0.011-2.755,1.167l0,0c-0.241,0.843,0.119,1.742,0.875,2.185l11.068,6.502
									c0,0,6.072,14.471,13.337,11.813L285.452,211.643z"/>
								<path style="fill:none;stroke:#CD8E7C;stroke-width:1.664;stroke-miterlimit:10;" d="M282.085,193.218
									c0,0-7.899,3.435-5.66,14.132"/>
							</g>
						</g>
					</g>
					<g>
						<path style="fill:#88CEC5;" d="M403.409,217.038l28.944,1.451c0,0,10.62,1.534,14.125,25.564
							c4.226,28.971,5.309,79.092,5.309,79.092l-84.638-1.235l-1.65-85.681l2.672-14.919l17.577-3.078L403.409,217.038z"/>
						
							<line style="fill:none;stroke:#1E3442;stroke-width:1.3276;stroke-miterlimit:10;" x1="366.268" y1="271.384" x2="366.268" y2="249.045"/>
					</g>
					<g>
						<g>
							<path style="fill:#FFFFFF;" d="M350.558,314.751l-16.21-72.21c-0.651-1.201-1.908-1.95-3.275-1.95l-105.304,0.016
								c-2.068,0-3.408,2.181-2.475,4.026l14.666,70.135L350.558,314.751z"/>
							<path style="fill:#FFFFFF;" d="M410.1,305.445l-72.579,0.011l0.001,9.297l72.579-0.011c2.567,0,4.648-2.082,4.648-4.649v0
								C414.749,307.525,412.667,305.444,410.1,305.445z"/>
						</g>
						<path style="fill:none;stroke:#1E3442;stroke-width:1.3646;stroke-miterlimit:10;" d="M273.288,280.314
							c0.001,3.826,3.103,6.927,6.929,6.927c3.826-0.001,6.927-3.103,6.927-6.929c-0.001-3.826-3.103-6.927-6.929-6.927
							C276.389,273.385,273.288,276.487,273.288,280.314z"/>
						<path style="fill:none;stroke:#1E3442;stroke-width:1.3646;stroke-miterlimit:10;" d="M350.558,314.751l-15.98-71.784
							c-0.793-1.464-2.325-2.376-3.99-2.376l-53.503,0.008"/>
					</g>
					<g>
						<g>
							<path style="fill:#88CEC5;" d="M448.224,226.57l45.559,62.943l-37.694,9.445l-38.718-49.278
								c-5.968-7.596-5.393-18.436,1.345-25.359v0C427.101,215.707,441.24,216.784,448.224,226.57z"/>
							
								<line style="fill:none;stroke:#1E3442;stroke-width:1.3276;stroke-miterlimit:10;" x1="421.679" y1="254.811" x2="449.641" y2="291.143"/>
						</g>
						<g>
							<path style="fill:#88CEC5;" d="M449.641,291.143l26.059-7.298c8.571-2.945,17.873,1.82,20.49,10.497l0,0
								c3.093,10.256-4.583,20.59-15.295,20.592l-22.726,0.004L449.641,291.143z"/>
							<g>
								<path style="fill:#DFA68F;" d="M390.178,301.739l72.879-12.986c7.195-1.243,14.031,3.597,15.249,10.796l0,0
									c1.361,8.048-4.84,15.387-13.002,15.388l-75.124,0.012L390.178,301.739z"/>
								<path style="fill:#DFA68F;" d="M390.178,301.739c0,0-23.469-11.371-31.124,0.026c0,0-3.719,6.032-1.118,13.19l32.244-0.005
									L390.178,301.739z"/>
							</g>
						</g>
					</g>
				</g>
				<g>
					<path style="fill:#DFA68F;" d="M404.357,189.756l2.424,26.955c0.171,1.901-0.557,3.773-1.968,5.06l-16.832,15.432
						l-3.116-15.209l-1.006-32.908L404.357,189.756z"/>
					<path style="fill:#1E3442;" d="M402.723,186.321c0,0,1.251,14.691-18.13,26.548l-0.321-13.078L402.723,186.321z"/>
					<path style="fill:#D39783;" d="M376.927,180.46c0.066,3.902-2.945,7.13-6.724,7.21c-3.779,0.081-6.896-3.017-6.962-6.919
						c-0.066-3.902,2.945-7.13,6.724-7.21C373.744,173.46,376.861,176.558,376.927,180.46z"/>
					<path style="fill:#DFA68F;" d="M383.263,204.695L383.263,204.695c-9.629-0.456-16.331-8.555-16.209-16.688l0.347-17.013
						c0.153-10.193,8.109-18.45,17.982-18.66l0,0c10.107-0.215,20.213,8.031,20.389,18.465l-0.431,13.254
						C404.967,195.986,394.824,204.449,383.263,204.695z"/>
					<g>
						
							<polyline style="fill:none;stroke:#1E3442;stroke-width:0.9451;stroke-linecap:round;stroke-linejoin:round;stroke-miterlimit:10;" points="
							377.026,184.482 376.508,187.95 378.885,188.16 						"/>
						<path style="fill:#1E3442;" d="M373.859,181.157c-0.018,0.945-0.774,1.699-1.69,1.684c-0.915-0.015-1.643-0.794-1.625-1.739
							c0.018-0.945,0.774-1.699,1.69-1.684C373.149,179.434,373.877,180.212,373.859,181.157z"/>
						<path style="fill:#1E3442;" d="M388.388,181.392c-0.017,0.945-0.774,1.699-1.69,1.684c-0.915-0.015-1.643-0.794-1.625-1.739
							c0.018-0.945,0.774-1.699,1.69-1.684C387.678,179.668,388.406,180.447,388.388,181.392z"/>
						<g>
							<defs>
								<path id="XMLID_1_" d="M376.051,191.611l9.213,0.184c0.431,0.009,0.741,0.422,0.64,0.856
									c-0.311,1.336-1.447,3.785-5.605,3.702c-3.367-0.067-4.532-2.483-4.921-3.846
									C375.249,192.053,375.593,191.602,376.051,191.611z"/>
							</defs>
							<use xlink:href="#XMLID_1_"  style="overflow:visible;fill:#FFFFFF;"/>
							<clipPath id="XMLID_00000014633499002261701940000016232881174427503510_">
								<use xlink:href="#XMLID_1_"  style="overflow:visible;"/>
							</clipPath>
							<polygon style="clip-path:url(#XMLID_00000014633499002261701940000016232881174427503510_);fill:#1E3442;" points="
								386.806,193.769 373.853,193.414 378.075,197.413 384.313,197.485 							"/>
							<path style="clip-path:url(#XMLID_00000014633499002261701940000016232881174427503510_);fill:#CF682B;" d="M385.738,193.74
								c0,0-6.506-1.206-5.879,3.693C379.859,197.433,384.926,196.514,385.738,193.74"/>
						</g>
						
							<line style="fill:none;stroke:#1E3442;stroke-width:2.5931;stroke-linecap:round;stroke-linejoin:round;stroke-miterlimit:10;" x1="391.321" y1="174.038" x2="385.04" y2="173.068"/>
						
							<line style="fill:none;stroke:#1E3442;stroke-width:2.5931;stroke-linecap:round;stroke-linejoin:round;stroke-miterlimit:10;" x1="374.648" y1="172.489" x2="370.264" y2="173.186"/>
					</g>
					<path style="fill:#1E3442;" d="M400.849,183.765l-1.789-0.241c-0.681-0.092-1.168-0.707-1.099-1.391l0.828-8.294
						c0,0-6.055-1.778-4.163-11.208c0,0-21.969-9.847-27.188,6.897c0,0-6.1-2.518-2.164-8.289c0,0-8.198-8.261,2.02-15.404
						c10.218-7.144,29.884-2.007,37.524,7.526c0,0,25.525,4.577,6.953,29.139L400.849,183.765z"/>
					<g>
						<path style="fill:#DFA68F;" d="M414.27,184.331c0.065,3.864-2.916,7.061-6.659,7.14c-3.743,0.08-6.829-2.988-6.894-6.852
							c-0.065-3.864,2.916-7.061,6.659-7.14C411.118,177.4,414.205,180.467,414.27,184.331z"/>
						
							<path style="fill:none;stroke:#1E3442;stroke-width:0.9451;stroke-linecap:round;stroke-linejoin:round;stroke-miterlimit:10;" d="
							M405.122,187.461c0,0-0.878-6.347,4.712-5.631"/>
					</g>
				</g>
				<g>
					<g>
						<rect x="409.414" y="374.15" style="fill:#FFFFFF;" width="5.443" height="56.964"/>
						<path style="fill:#1E3442;" d="M365.289,383.803h86.749c7.321,0,13.256-5.935,13.256-13.256l0,0
							c0-3.342-2.71-6.052-6.052-6.052h-93.952c-0.48,0-0.869,0.389-0.869,0.869v17.57
							C364.42,383.414,364.809,383.803,365.289,383.803z"/>
					</g>
					<g>
						<g>
							<path style="fill:#3F3773;" d="M318.782,319.31h100.189l3.31,26.477c1.36,10.881-7.124,20.492-18.09,20.492H303.544
								l-2.721-29.01C300.823,327.35,308.863,319.31,318.782,319.31L318.782,319.31z"/>
							<polygon style="fill:#3F3773;" points="301.042,334.209 282.497,431.161 329.189,431.161 344.941,351.416 							"/>
						</g>
						<g>
							<path style="fill:#705ACC;" d="M339.963,346.233l-1.059,84.928h48.316c0,0,1.054-84.4,1.059-84.928H339.963z"/>
							<g>
								<path style="fill:#705ACC;" d="M357.921,319.31h98.428l2.209,17.672c1.36,10.881-1.839,29.297-23.202,29.297h-95.394
									v-20.046c0-17.226,13.71-26.923,23.629-26.923H357.921z"/>
								
									<line style="fill:none;stroke:#1E3442;stroke-width:1.3276;stroke-miterlimit:10;" x1="388.112" y1="366.968" x2="368.301" y2="366.968"/>
							</g>
						</g>
					</g>
				</g>
			</g>
			<g>
				<g>
					<g>
						<polygon style="fill:#FFFFFF;" points="181.379,322.735 174.967,430.94 184.739,430.95 196.51,322.75 						"/>
						<polygon style="fill:#E6E6E6;" points="181.379,322.735 180.634,334.874 195.143,334.888 196.51,322.75 						"/>
					</g>
					<g>
						<polygon style="fill:#FFFFFF;" points="487.08,323.037 493.277,431.255 483.505,431.245 471.949,323.022 						"/>
						<polygon style="fill:#E6E6E6;" points="487.08,323.037 487.801,335.177 473.292,335.163 471.949,323.022 						"/>
					</g>
					<g>
						<polygon style="fill:#FFFFFF;" points="556.205,323.105 562.402,431.323 552.63,431.314 541.074,323.09 						"/>
						<polygon style="fill:#E6E6E6;" points="556.205,323.105 556.926,335.246 542.417,335.231 541.074,323.09 						"/>
					</g>
					<g>
						<polygon style="fill:#FFFFFF;" points="250.509,322.803 244.097,431.009 253.869,431.018 265.64,322.818 						"/>
						<polygon style="fill:#E6E6E6;" points="250.509,322.803 249.764,334.942 264.273,334.956 265.64,322.818 						"/>
					</g>
					<g>
						<rect x="160.43" y="314.408" style="fill:#2E4F69;" width="336.285" height="13.442"/>
						
							<rect x="496.715" y="314.615" transform="matrix(1 0.001 -0.001 1 0.3224 -0.5377)" style="fill:#1E3442;" width="79.71" height="13.442"/>
					</g>
				</g>
				<g>
					<g>
						<g>
							<g>
								<path style="fill:#F8F8F8;" d="M487.814,286.421c-0.624-0.001-1.112-0.432-1.112-0.98l0-0.06l1.768-8.815
									c0.039-0.504,0.462-0.902,0.975-0.902l10.752,0.012c0.514,0.001,0.937,0.4,0.974,0.904l1.75,8.819l0,0.061
									c-0.001,0.548-0.492,0.978-1.117,0.977L487.814,286.421z"/>
								<path style="fill:#705ACC;" d="M500.198,275.06l-10.752-0.012c-0.823-0.001-1.503,0.628-1.585,1.429l-1.751,8.723
									l-0.024,0.119l0,0.121c-0.001,0.895,0.757,1.595,1.728,1.597l13.991,0.016c0.971,0.001,1.733-0.698,1.734-1.593l0-0.121
									l-0.025-0.12l-1.73-8.727C501.702,275.691,501.022,275.061,500.198,275.06L500.198,275.06z"/>
							</g>
							<g>
								<path style="fill:#88CEC5;" d="M499.576,280.866l-0.608-3.074c0-0.14-0.112-0.253-0.253-0.253l-7.789-0.009
									c-0.14,0-0.253,0.113-0.253,0.252l-0.617,3.073L499.576,280.866z"/>
							</g>
						</g>
						<path style="fill:#705ACC;" d="M515.914,310.138c-0.003,2.791-2.262,5.046-5.051,5.042l-44.787-0.051
							c-2.787-0.003-5.044-2.263-5.041-5.054L461.06,288c0.003-2.788,2.265-5.043,5.052-5.04l44.787,0.051
							c2.789,0.003,5.043,2.263,5.04,5.051L515.914,310.138z"/>
						
							<rect x="481.857" y="271.794" transform="matrix(0.0011 -1 1 0.0011 188.695 787.3784)" style="fill:#3F3773;" width="13.26" height="54.879"/>
						<path style="fill:#FFFFFF;" d="M510.089,298.303c-0.01,8.446-6.866,15.286-15.311,15.276
							c-8.444-0.01-15.286-6.866-15.276-15.311c0.01-8.445,6.867-15.285,15.311-15.275
							C503.258,283.003,510.099,289.858,510.089,298.303z"/>
						<g>
							<path style="fill:#223A57;" d="M508.245,298.301c-0.009,7.429-6.04,13.441-13.464,13.433
								c-7.425-0.009-13.441-6.034-13.433-13.464c0.009-7.428,6.038-13.44,13.464-13.431
								C502.235,284.847,508.253,290.873,508.245,298.301z"/>
						</g>
						<path style="fill:#88CEC5;" d="M506.154,298.299c-0.007,6.273-5.098,11.352-11.371,11.345
							c-6.272-0.007-11.352-5.098-11.345-11.371c0.007-6.273,5.099-11.352,11.371-11.345
							C501.082,286.936,506.161,292.026,506.154,298.299z"/>
						<g>
							<path style="fill:#F9FCFB;" d="M486.425,295.799l-0.1,0c-0.332,1.507-0.249,3.144,0.26,4.663
								c0.484,1.529,1.373,2.93,2.505,4.085c0.58,0.563,1.213,1.075,1.896,1.504c0.694,0.409,1.415,0.778,2.183,1.012
								c1.516,0.514,3.154,0.6,4.662,0.27l0.001-0.1L486.425,295.799z"/>
						</g>
						<path style="fill:#705ACC;" d="M474.255,286.122l-4.714-0.005c-0.776-0.001-1.404-0.631-1.403-1.407l0.003-2.87
							c0.001-0.776,0.631-1.404,1.407-1.403l4.714,0.005c0.776,0.001,1.404,0.631,1.403,1.407l-0.003,2.87
							C475.66,285.495,475.03,286.123,474.255,286.122z"/>
						<path style="fill:#F9FCFB;" d="M500.752,294.634c-0.002,1.322-1.074,2.393-2.397,2.391c-1.322-0.001-2.392-1.074-2.391-2.396
							c0.002-1.322,1.074-2.393,2.397-2.391C499.683,292.239,500.754,293.312,500.752,294.634z"/>
					</g>
					<g>
						
							<path style="fill:none;stroke:#1E3442;stroke-width:1.3276;stroke-linecap:round;stroke-linejoin:round;stroke-miterlimit:10;" d="
							M356.361,309.362c0,0,1.696,29.438,27.515,29.467c25.819,0.029,28.002-38.727,75.199-39.629"/>
						
							<rect x="457.976" y="295.768" transform="matrix(1 0.0011 -0.0011 1 0.3406 -0.5233)" style="fill:#1E3442;" width="3.072" height="5.859"/>
						
							<rect x="353.797" y="306.998" transform="matrix(1 0.0011 -0.0011 1 0.3507 -0.4025)" style="fill:#1E3442;" width="3.266" height="4.725"/>
					</g>
				</g>
			</g>
		</g>
		
			<line style="fill:none;stroke:#FFFFFF;stroke-width:1.4977;stroke-miterlimit:10;" x1="91.803" y1="431.103" x2="652.237" y2="431.103"/>
	</g>
</g>
<g id="DESIGNED_BY_FREEPIK">
	<g>
		<g id="XMLID_29_">
			<g id="XMLID_48_">
				<path id="XMLID_56_" style="fill:#1C1C1B;" d="M385.084,465.471c-0.432,0.443-0.803,0.931-1.108,1.453l-0.465-0.241
					c-0.067-0.298-0.349-0.503-0.659-0.466c-0.331,0.039-0.568,0.339-0.529,0.67c0.039,0.331,0.339,0.568,0.67,0.529
					c0.065-0.008,0.127-0.026,0.184-0.052l0.452,0.234c-0.251,0.554-0.433,1.139-0.539,1.744l0.746,0.132
					c0.23-1.306,0.85-2.507,1.792-3.472L385.084,465.471z"/>
				<path id="XMLID_55_" style="fill:#1C1C1B;" d="M390.572,463.169c-0.171,0-0.341,0.006-0.51,0.017l-0.074-0.626
					c0.188-0.149,0.296-0.389,0.266-0.645c-0.046-0.393-0.402-0.674-0.795-0.628s-0.674,0.402-0.628,0.795
					c0.03,0.254,0.189,0.461,0.405,0.564l0.073,0.624c-0.714,0.116-1.403,0.332-2.06,0.646l0.327,0.684
					c0.934-0.447,1.942-0.673,2.995-0.673c0.496,0,0.993,0.053,1.475,0.158l0.161-0.741
					C391.672,463.228,391.122,463.169,390.572,463.169z"/>
				<path id="XMLID_54_" style="fill:#1C1C1B;" d="M397.174,465.716c0.331-0.04,0.566-0.341,0.525-0.672
					c-0.04-0.331-0.341-0.566-0.672-0.526c-0.309,0.038-0.535,0.304-0.53,0.609l-0.416,0.363c-0.418-0.43-0.89-0.813-1.408-1.139
					l-0.404,0.641c1.134,0.715,2.021,1.726,2.563,2.925l0.69-0.313c-0.251-0.554-0.567-1.072-0.942-1.545l0.402-0.351
					C397.045,465.721,397.109,465.724,397.174,465.716z"/>
				<path id="XMLID_53_" style="fill:#1C1C1B;" d="M390.024,473.377c-0.386,0.023-0.775,0.035-1.157,0.035
					c-0.88,0-1.733-0.061-2.478-0.179c-0.39-0.062-0.846-0.155-1.27-0.292c1.046,1.861,3.069,3.125,5.388,3.125
					c2.855,0,5.262-1.916,5.95-4.504c-0.682,0.449-1.505,0.825-2.459,1.123C392.818,473.052,391.443,473.292,390.024,473.377z"/>
				<path id="XMLID_49_" style="fill:#1C1C1B;" d="M390.572,464.685c-3.352,0-6.08,2.666-6.08,5.944
					c0,0.425,0.046,0.849,0.137,1.261c0.673,0.483,2.706,0.89,5.348,0.731c2.879-0.173,5.297-0.957,6.672-2.158
					c-0.005-0.195-0.021-0.39-0.045-0.582C396.223,466.919,393.63,464.685,390.572,464.685z M388.412,471.2
					c-1.02,0-1.85-0.83-1.85-1.85c0-1.02,0.83-1.85,1.85-1.85c1.02,0,1.85,0.83,1.85,1.85
					C390.262,470.37,389.432,471.2,388.412,471.2z M393.15,470.292c-0.75,0-1.36-0.61-1.36-1.36s0.61-1.361,1.36-1.361
					c0.75,0,1.361,0.61,1.361,1.361S393.9,470.292,393.15,470.292z"/>
			</g>
			<path id="XMLID_46_" style="fill:#1C1C1B;" d="M406.575,466.552c-0.295-0.116-0.806-0.309-1.382-0.237
				c-0.551,0.068-0.844,0.34-0.844,1.007v0.866h2.228v1.717h-2.228v5.455h-1.932v-5.455h-1.34v-1.717h1.34v-0.888
				c0-1.68,0.896-2.783,2.568-2.783c0.643,0,1.157,0.122,1.59,0.308L406.575,466.552z"/>
			<path id="XMLID_44_" style="fill:#1C1C1B;" d="M411.278,469.884c-0.177-0.03-0.358-0.046-0.526-0.046
				c-0.896,0-1.51,0.548-1.51,1.613v3.908h-1.932v-7.172h1.873v0.785c0.451-0.673,1.14-0.977,2.021-0.977
				c0.414,0,0.848,0.128,1.094,0.337L411.278,469.884z"/>
			<path id="XMLID_41_" style="fill:#1C1C1B;" d="M418.945,471.762c0,0.222-0.015,0.489-0.037,0.651h-5.085
				c0.207,1.036,0.933,1.488,1.843,1.488c0.622,0,1.295-0.252,1.813-0.688l1.133,1.243c-0.814,0.748-1.85,1.088-3.057,1.088
				c-2.198,0-3.723-1.495-3.723-3.753c0-2.258,1.48-3.797,3.626-3.797C417.524,467.995,418.937,469.527,418.945,471.762z
				 M413.83,471.096h3.175c-0.177-0.918-0.733-1.436-1.562-1.436C414.534,469.66,414.001,470.208,413.83,471.096z"/>
			<path id="XMLID_38_" style="fill:#1C1C1B;" d="M426.598,471.762c0,0.222-0.015,0.489-0.037,0.651h-5.085
				c0.207,1.036,0.932,1.488,1.843,1.488c0.622,0,1.295-0.252,1.813-0.688l1.132,1.243c-0.814,0.748-1.85,1.088-3.057,1.088
				c-2.198,0-3.723-1.495-3.723-3.753c0-2.258,1.48-3.797,3.627-3.797C425.177,467.995,426.591,469.527,426.598,471.762z
				 M421.484,471.096h3.175c-0.178-0.918-0.733-1.436-1.562-1.436C422.187,469.66,421.654,470.208,421.484,471.096z"/>
			<path id="XMLID_35_" style="fill:#1C1C1B;" d="M434.944,471.77c0,2.154-1.495,3.775-3.471,3.775
				c-0.962,0-1.643-0.378-2.109-0.933v3.708h-1.924v-10.133h1.887v0.792c0.466-0.585,1.155-0.984,2.139-0.984
				C433.449,467.995,434.944,469.616,434.944,471.77z M429.267,471.77c0,1.132,0.748,1.976,1.843,1.976
				c1.14,0,1.85-0.881,1.85-1.976c0-1.095-0.71-1.976-1.85-1.976C430.014,469.794,429.267,470.637,429.267,471.77z"/>
			<path id="XMLID_32_" style="fill:#1C1C1B;" d="M438.047,465.841c0,0.696-0.54,1.229-1.236,1.229
				c-0.696,0-1.229-0.533-1.229-1.229c0-0.696,0.533-1.243,1.229-1.243C437.507,464.598,438.047,465.146,438.047,465.841z
				 M437.788,475.359h-1.932v-7.172h1.932V475.359z"/>
			<path id="XMLID_30_" style="fill:#1C1C1B;" d="M441.012,470.741l2.701-2.554h2.368l-3.479,3.375l3.501,3.797h-2.376l-2.716-2.901
				v2.901h-1.932v-10.658h1.932V470.741z"/>
		</g>
		<g>
			<path style="fill:#1C1C1B;" d="M309.392,475.294v-1.055c-0.527,0.718-1.391,1.231-2.388,1.231c-1.846,0-3.149-1.406-3.149-3.706
				c0-2.256,1.289-3.721,3.149-3.721c0.952,0,1.816,0.469,2.388,1.245v-3.765h1.099v9.77H309.392z M309.392,473.376v-3.208
				c-0.395-0.615-1.245-1.143-2.124-1.143c-1.421,0-2.27,1.172-2.27,2.739c0,1.567,0.85,2.724,2.27,2.724
				C308.147,474.489,308.997,473.991,309.392,473.376z"/>
			<path style="fill:#1C1C1B;" d="M311.912,471.75c0-2.051,1.465-3.706,3.486-3.706c2.139,0,3.398,1.67,3.398,3.794v0.279h-5.727
				c0.088,1.333,1.025,2.446,2.549,2.446c0.806,0,1.626-0.322,2.182-0.893l0.527,0.718c-0.703,0.703-1.655,1.084-2.812,1.084
				C313.42,475.47,311.912,473.962,311.912,471.75z M315.383,468.952c-1.509,0-2.256,1.274-2.314,2.358h4.643
				C317.697,470.255,316.994,468.952,315.383,468.952z"/>
			<path style="fill:#1C1C1B;" d="M319.587,474.357l0.571-0.791c0.469,0.542,1.362,1.011,2.329,1.011c1.084,0,1.67-0.513,1.67-1.216
				c0-1.714-4.38-0.659-4.38-3.281c0-1.098,0.952-2.036,2.636-2.036c1.201,0,2.051,0.454,2.622,1.026l-0.513,0.762
				c-0.424-0.513-1.201-0.894-2.109-0.894c-0.967,0-1.567,0.483-1.567,1.113c0,1.552,4.38,0.527,4.38,3.281
				c0,1.187-0.952,2.139-2.783,2.139C321.286,475.47,320.304,475.119,319.587,474.357z"/>
			<path style="fill:#1C1C1B;" d="M326.457,466.477c0-0.41,0.337-0.747,0.732-0.747c0.41,0,0.747,0.337,0.747,0.747
				c0,0.41-0.337,0.732-0.747,0.732C326.794,467.209,326.457,466.887,326.457,466.477z M326.647,475.294v-7.075h1.099v7.075H326.647
				z"/>
			<path style="fill:#1C1C1B;" d="M329.562,477.111l0.556-0.82c0.586,0.703,1.289,0.967,2.3,0.967c1.172,0,2.27-0.571,2.27-2.124
				v-1.011c-0.513,0.718-1.377,1.26-2.373,1.26c-1.845,0-3.149-1.377-3.149-3.662c0-2.27,1.289-3.677,3.149-3.677
				c0.952,0,1.802,0.469,2.373,1.245v-1.069h1.099v6.87c0,2.344-1.641,3.076-3.369,3.076
				C331.217,478.165,330.396,477.931,329.562,477.111z M334.688,473.259v-3.091c-0.381-0.615-1.23-1.143-2.109-1.143
				c-1.421,0-2.27,1.128-2.27,2.695c0,1.553,0.849,2.695,2.27,2.695C333.458,474.416,334.307,473.874,334.688,473.259z"/>
			<path style="fill:#1C1C1B;" d="M342.393,475.294v-4.629c0-1.245-0.63-1.641-1.582-1.641c-0.865,0-1.685,0.527-2.095,1.099v5.17
				h-1.099v-7.075h1.099v1.025c0.498-0.586,1.465-1.201,2.519-1.201c1.48,0,2.256,0.747,2.256,2.285v4.966H342.393z"/>
			<path style="fill:#1C1C1B;" d="M344.912,471.75c0-2.051,1.465-3.706,3.486-3.706c2.138,0,3.398,1.67,3.398,3.794v0.279h-5.727
				c0.088,1.333,1.025,2.446,2.549,2.446c0.806,0,1.626-0.322,2.183-0.893l0.527,0.718c-0.703,0.703-1.655,1.084-2.812,1.084
				C346.421,475.47,344.912,473.962,344.912,471.75z M348.384,468.952c-1.509,0-2.256,1.274-2.314,2.358h4.643
				C350.698,470.255,349.995,468.952,348.384,468.952z"/>
			<path style="fill:#1C1C1B;" d="M358.33,475.294v-1.055c-0.527,0.718-1.391,1.231-2.388,1.231c-1.846,0-3.149-1.406-3.149-3.706
				c0-2.256,1.289-3.721,3.149-3.721c0.952,0,1.817,0.469,2.388,1.245v-3.765h1.099v9.77H358.33z M358.33,473.376v-3.208
				c-0.396-0.615-1.245-1.143-2.124-1.143c-1.421,0-2.27,1.172-2.27,2.739c0,1.567,0.849,2.724,2.27,2.724
				C357.085,474.489,357.934,473.991,358.33,473.376z"/>
			<path style="fill:#1C1C1B;" d="M364.672,475.294v-9.77h1.099v3.765c0.572-0.776,1.421-1.245,2.388-1.245
				c1.845,0,3.149,1.465,3.149,3.721c0,2.299-1.304,3.706-3.149,3.706c-0.996,0-1.86-0.513-2.388-1.231v1.055H364.672z
				 M367.879,474.489c1.436,0,2.286-1.157,2.286-2.724c0-1.568-0.85-2.739-2.286-2.739c-0.864,0-1.728,0.527-2.109,1.143v3.208
				C366.151,473.991,367.015,474.489,367.879,474.489z"/>
			<path style="fill:#1C1C1B;" d="M372.508,477.067c0.161,0.073,0.425,0.117,0.601,0.117c0.483,0,0.806-0.161,1.055-0.747
				l0.469-1.069l-2.959-7.148h1.187l2.358,5.801l2.344-5.801h1.201l-3.545,8.51c-0.425,1.025-1.143,1.421-2.08,1.435
				c-0.234,0-0.601-0.044-0.806-0.103L372.508,477.067z"/>
		</g>
	</g>
</g>
</svg>
